<svg width="200" height="200" viewBox="0 0 200 200" fill="none" xmlns="http://www.w3.org/2000/svg">
<path d="M166.449 41.1535L153.333 35.125C141.497 29.6393 128.43 31.4393 117.547 40.0249C107.01 48.3534 93.9042 48.3677 83.3579 40.0249C72.494 31.4393 59.4475 29.6393 47.5618 35.125L34.4557 41.1535C31.8365 42.3535 30.3979 46.3677 31.2412 50.1391C32.0746 53.8819 34.8526 55.9533 37.4718 54.7533L50.5779 48.7106C59.894 44.4535 70.0931 45.8249 78.5857 52.5391C85.3322 57.8676 92.8923 60.5247 100.452 60.5247C108.012 60.5247 115.562 57.8676 122.309 52.5534C130.812 45.8249 141.011 44.4392 150.307 48.7248L163.423 54.7533C166.082 55.9819 168.83 53.8676 169.663 50.1248C170.497 46.3677 169.058 42.3535 166.449 41.1535Z" fill="#A8D9FF"/>
<path d="M166.449 77.0102L153.333 70.9817C141.497 65.5246 128.43 67.296 117.547 75.8816C107.01 84.2101 93.9042 84.2244 83.3579 75.8816C72.4841 67.2817 59.4376 65.4817 47.5618 70.9817L34.4557 77.0102C31.8365 78.2102 30.3979 82.2244 31.2412 85.9958C32.0746 89.7386 34.8526 91.7957 37.4718 90.61L50.5779 84.5672C59.894 80.3101 70.0931 81.6815 78.5857 88.3958C85.3322 93.7243 92.8923 96.3814 100.452 96.3814C108.012 96.3814 115.562 93.7243 122.309 88.41C130.812 81.6815 141.011 80.2958 150.307 84.5815L163.423 90.61C166.082 91.8386 168.83 89.7386 169.663 85.9815C170.497 82.2244 169.058 78.2102 166.449 77.0102Z" fill="#A8D9FF"/>
<path d="M166.448 112.867L153.35 106.853C141.472 101.324 128.453 103.138 117.547 111.738C107.009 120.052 93.9008 120.052 83.3526 111.738C72.467 103.138 59.428 101.353 47.5601 106.838L34.4517 112.867C31.8419 114.067 30.4031 118.081 31.2366 121.852C32.0701 125.595 34.8486 127.638 37.4683 126.481L50.5767 120.452C59.8647 116.138 70.0755 117.552 78.5796 124.252C85.3272 129.581 92.8886 132.238 100.45 132.238C108.011 132.238 115.563 129.581 122.311 124.267C130.815 117.552 141.015 116.124 150.313 120.452L163.422 126.481C166.061 127.652 168.82 125.595 169.663 121.852C170.497 118.081 169.058 114.067 166.448 112.867Z" fill="#A8D9FF"/>
<path d="M166.449 148.709L153.351 142.695C141.474 137.181 128.456 138.981 117.551 147.581C107.024 155.895 93.9062 155.909 83.3587 147.581C72.4838 138.995 59.426 137.238 47.5589 142.681L34.4514 148.709C31.8419 149.909 30.4031 153.923 31.2366 157.695C32.0701 161.438 34.8483 163.466 37.4678 162.323L50.5753 156.295C59.8725 152.009 70.0727 153.395 78.5861 160.109C85.3333 165.438 92.8941 168.095 100.455 168.095C108.016 168.095 115.567 165.438 122.314 160.109C130.817 153.395 141.018 151.981 150.315 156.295L163.422 162.323C166.062 163.495 168.82 161.438 169.663 157.695C170.497 153.923 169.058 149.909 166.449 148.709Z" fill="#A8D9FF"/>
</svg>
