<svg width="200" height="200" viewBox="0 0 200 200" fill="none" xmlns="http://www.w3.org/2000/svg">
<path fill-rule="evenodd" clip-rule="evenodd" d="M48.29 54.0386C50.7446 33.1809 68.4827 17 90 17C104.835 17 117.874 24.6914 125.346 36.304C128.975 35.4511 132.759 35 136.648 35C163.904 35 186 57.1619 186 84.5C186 111.838 163.904 134 136.648 134H54.0682C31.9391 134 14 116.007 14 93.812C14 73.5847 28.8988 56.8477 48.29 54.0386Z" fill="url(#paint0_linear)"/>
<path d="M45.3625 160.266L37.7386 175.514C36.5036 177.984 37.5047 180.987 39.9746 182.222C42.4445 183.457 45.4479 182.456 46.6828 179.986L54.3068 164.738C55.5417 162.268 54.5406 159.265 52.0707 158.03C49.6008 156.795 46.5975 157.796 45.3625 160.266Z" fill="#A8D9FF"/>
<path d="M95.8646 160.266L88.2407 175.514C87.0057 177.984 88.0068 180.987 90.4767 182.222C92.9466 183.457 95.95 182.456 97.1849 179.986L104.809 164.738C106.044 162.268 105.043 159.265 102.573 158.03C100.103 156.795 97.0996 157.796 95.8646 160.266Z" fill="#A8D9FF"/>
<path d="M75.7889 149.053L68.1649 164.301C66.93 166.771 67.9311 169.774 70.401 171.009C72.8709 172.244 75.8742 171.243 77.1092 168.773L84.7331 153.525C85.9681 151.055 84.967 148.052 82.4971 146.817C80.0272 145.582 77.0238 146.583 75.7889 149.053Z" fill="#A8D9FF"/>
<path d="M126.291 149.053L118.667 164.301C117.432 166.771 118.433 169.774 120.903 171.009C123.373 172.244 126.376 171.243 127.611 168.773L135.235 153.525C136.47 151.055 135.469 148.052 132.999 146.817C130.529 145.582 127.526 146.583 126.291 149.053Z" fill="#A8D9FF"/>
<path d="M90.1518 118.764L82.5279 134.012C81.2929 136.482 82.294 139.485 84.7639 140.72C87.2338 141.955 90.2372 140.954 91.4721 138.484L99.0961 123.236C100.331 120.766 99.3299 117.763 96.86 116.528C94.3901 115.293 91.3868 116.294 90.1518 118.764Z" fill="#A8D9FF"/>
<path d="M141.152 118.764L133.528 134.012C132.293 136.482 133.294 139.485 135.764 140.72C138.234 141.955 141.237 140.954 142.472 138.484L150.096 123.236C151.331 120.766 150.33 117.763 147.86 116.528C145.39 115.293 142.387 116.294 141.152 118.764Z" fill="#A8D9FF"/>
<path d="M110.152 129.764L102.528 145.012C101.293 147.482 102.294 150.485 104.764 151.72C107.234 152.955 110.237 151.954 111.472 149.484L119.096 134.236C120.331 131.766 119.33 128.763 116.86 127.528C114.39 126.293 111.387 127.294 110.152 129.764Z" fill="#A8D9FF"/>
<path d="M60.1518 129.764L52.5279 145.012C51.2929 147.482 52.294 150.485 54.7639 151.72C57.2338 152.955 60.2372 151.954 61.4721 149.484L69.0961 134.236C70.331 131.766 69.3299 128.763 66.86 127.528C64.3901 126.293 61.3868 127.294 60.1518 129.764Z" fill="#A8D9FF"/>
<defs>
<linearGradient id="paint0_linear" x1="14" y1="17" x2="14" y2="134" gradientUnits="userSpaceOnUse">
<stop stop-color="#A9D9FF"/>
<stop offset="1" stop-color="#7AC5FF"/>
</linearGradient>
</defs>
</svg>
