<svg width="200" height="200" viewBox="0 0 200 200" fill="none" xmlns="http://www.w3.org/2000/svg">
<path d="M44.5004 175C42.8905 175 41.5837 173.696 41.5837 172.083V142.917C41.5837 141.304 42.8905 140 44.5004 140C46.1103 140 47.4171 141.304 47.4171 142.917V172.083C47.4171 173.696 46.1103 175 44.5004 175Z" fill="#C6E2F7"/>
<path d="M59.0833 160.417H29.9167C28.3068 160.417 27 159.113 27 157.5C27 155.887 28.3068 154.583 29.9167 154.583H59.0833C60.6932 154.583 62 155.887 62 157.5C62 159.113 60.6936 160.417 59.0833 160.417Z" fill="#C6E2F7"/>
<path d="M35.7505 169.167C35.0037 169.167 34.2572 168.881 33.6885 168.312C32.5482 167.172 32.5482 165.328 33.6885 164.188L51.1885 146.688C52.3259 145.547 54.1751 145.547 55.3128 146.688C56.4532 147.828 56.4532 149.672 55.3128 150.812L37.8125 168.312C37.2438 168.881 36.497 169.167 35.7505 169.167Z" fill="#C6E2F7"/>
<path d="M53.2505 169.167C52.5037 169.167 51.7572 168.881 51.1885 168.312L33.6885 150.812C32.5482 149.672 32.5482 147.828 33.6885 146.688C34.8259 145.547 36.6751 145.547 37.8128 146.688L55.3128 164.188C56.4532 165.328 56.4532 167.172 55.3128 168.312C54.7438 168.881 53.9969 169.167 53.2505 169.167Z" fill="#C6E2F7"/>
<path d="M84.4999 200C82.89 200 81.5833 198.696 81.5833 197.083V167.917C81.5833 166.304 82.89 165 84.4999 165C86.1099 165 87.4166 166.304 87.4166 167.917V197.083C87.4166 198.696 86.1099 200 84.4999 200Z" fill="url(#paint0_linear)"/>
<path d="M99.0834 185.417H69.9167C68.3068 185.417 67 184.113 67 182.5C67 180.887 68.3068 179.583 69.9167 179.583H99.0834C100.693 179.583 102 180.887 102 182.5C102 184.113 100.693 185.417 99.0834 185.417Z" fill="url(#paint1_linear)"/>
<path d="M75.75 194.167C75.0032 194.167 74.2567 193.881 73.6881 193.312C72.5477 192.172 72.5477 190.328 73.6881 189.188L91.1881 171.688C92.3254 170.547 94.1747 170.547 95.3123 171.688C96.4527 172.828 96.4527 174.672 95.3123 175.812L77.8123 193.312C77.2433 193.881 76.4968 194.167 75.75 194.167Z" fill="url(#paint2_linear)"/>
<path d="M93.25 194.167C92.5032 194.167 91.7568 193.881 91.1881 193.312L73.6881 175.812C72.5477 174.672 72.5477 172.828 73.6881 171.688C74.8254 170.547 76.6746 170.547 77.8123 171.688L95.3123 189.188C96.4527 190.328 96.4527 192.172 95.3123 193.312C94.7433 193.881 93.9969 194.167 93.25 194.167Z" fill="url(#paint3_linear)"/>
<path d="M160.333 200C158.723 200 157.417 198.696 157.417 197.083V167.917C157.417 166.304 158.723 165 160.333 165C161.943 165 163.25 166.304 163.25 167.917V197.083C163.25 198.696 161.943 200 160.333 200Z" fill="url(#paint4_linear)"/>
<path d="M174.916 185.417H145.75C144.14 185.417 142.833 184.113 142.833 182.5C142.833 180.887 144.14 179.583 145.75 179.583H174.916C176.526 179.583 177.833 180.887 177.833 182.5C177.833 184.113 176.526 185.417 174.916 185.417Z" fill="url(#paint5_linear)"/>
<path d="M151.583 194.167C150.836 194.167 150.09 193.881 149.521 193.312C148.381 192.172 148.381 190.328 149.521 189.188L167.021 171.688C168.158 170.547 170.008 170.547 171.145 171.688C172.286 172.828 172.286 174.672 171.145 175.812L153.645 193.312C153.077 193.881 152.33 194.167 151.583 194.167Z" fill="url(#paint6_linear)"/>
<path d="M169.083 194.167C168.336 194.167 167.59 193.881 167.021 193.312L149.521 175.812C148.381 174.672 148.381 172.828 149.521 171.688C150.658 170.547 152.508 170.547 153.645 171.688L171.145 189.188C172.286 190.328 172.286 192.172 171.145 193.312C170.576 193.881 169.83 194.167 169.083 194.167Z" fill="url(#paint7_linear)"/>
<path d="M124.499 175C122.89 175 121.583 173.696 121.583 172.083V142.917C121.583 141.304 122.89 140 124.499 140C126.109 140 127.416 141.304 127.416 142.917V172.083C127.416 173.696 126.109 175 124.499 175Z" fill="#C6E2F7"/>
<path d="M139.083 160.417H109.917C108.307 160.417 107 159.113 107 157.5C107 155.887 108.307 154.583 109.917 154.583H139.083C140.693 154.583 142 155.887 142 157.5C142 159.113 140.693 160.417 139.083 160.417Z" fill="#C6E2F7"/>
<path d="M115.749 169.167C115.002 169.167 114.256 168.881 113.687 168.312C112.547 167.172 112.547 165.328 113.687 164.188L131.187 146.688C132.325 145.547 134.174 145.547 135.312 146.688C136.452 147.828 136.452 149.672 135.312 150.812L117.812 168.312C117.243 168.881 116.496 169.167 115.749 169.167Z" fill="#C6E2F7"/>
<path d="M133.249 169.167C132.503 169.167 131.756 168.881 131.187 168.312L113.687 150.812C112.547 149.672 112.547 147.828 113.687 146.688C114.825 145.547 116.674 145.547 117.812 146.688L135.312 164.188C136.452 165.328 136.452 167.172 135.312 168.312C134.743 168.881 133.996 169.167 133.249 169.167Z" fill="#C6E2F7"/>
<path fill-rule="evenodd" clip-rule="evenodd" d="M51.29 55.0386C53.7446 34.1809 71.4827 18 93 18C107.835 18 120.874 25.6914 128.346 37.304C131.975 36.4511 135.759 36 139.648 36C166.904 36 189 58.1619 189 85.5C189 112.838 166.904 135 139.648 135H57.0682C34.9391 135 17 117.007 17 94.812C17 74.5847 31.8988 57.8477 51.29 55.0386Z" fill="url(#paint8_linear)"/>
<defs>
<linearGradient id="paint0_linear" x1="84.4999" y1="165" x2="84.4999" y2="200" gradientUnits="userSpaceOnUse">
<stop stop-color="#A9D9FF"/>
<stop offset="1" stop-color="#7AC5FF"/>
</linearGradient>
<linearGradient id="paint1_linear" x1="84.5" y1="179.583" x2="84.5" y2="185.417" gradientUnits="userSpaceOnUse">
<stop stop-color="#A9D9FF"/>
<stop offset="1" stop-color="#7AC5FF"/>
</linearGradient>
<linearGradient id="paint2_linear" x1="84.5002" y1="170.832" x2="84.5002" y2="194.167" gradientUnits="userSpaceOnUse">
<stop stop-color="#A9D9FF"/>
<stop offset="1" stop-color="#7AC5FF"/>
</linearGradient>
<linearGradient id="paint3_linear" x1="84.5002" y1="170.832" x2="84.5002" y2="194.167" gradientUnits="userSpaceOnUse">
<stop stop-color="#A9D9FF"/>
<stop offset="1" stop-color="#7AC5FF"/>
</linearGradient>
<linearGradient id="paint4_linear" x1="160.333" y1="165" x2="160.333" y2="200" gradientUnits="userSpaceOnUse">
<stop stop-color="#A9D9FF"/>
<stop offset="1" stop-color="#7AC5FF"/>
</linearGradient>
<linearGradient id="paint5_linear" x1="160.333" y1="179.583" x2="160.333" y2="185.417" gradientUnits="userSpaceOnUse">
<stop stop-color="#A9D9FF"/>
<stop offset="1" stop-color="#7AC5FF"/>
</linearGradient>
<linearGradient id="paint6_linear" x1="160.333" y1="170.832" x2="160.333" y2="194.167" gradientUnits="userSpaceOnUse">
<stop stop-color="#A9D9FF"/>
<stop offset="1" stop-color="#7AC5FF"/>
</linearGradient>
<linearGradient id="paint7_linear" x1="160.333" y1="170.832" x2="160.333" y2="194.167" gradientUnits="userSpaceOnUse">
<stop stop-color="#A9D9FF"/>
<stop offset="1" stop-color="#7AC5FF"/>
</linearGradient>
<linearGradient id="paint8_linear" x1="17" y1="18" x2="17" y2="135" gradientUnits="userSpaceOnUse">
<stop stop-color="#A9D9FF"/>
<stop offset="1" stop-color="#7AC5FF"/>
</linearGradient>
</defs>
</svg>
